<?xml version="1.0" standalone="no"?>
<!DOCTYPE svg PUBLIC "-//W3C//DTD SVG 20010904//EN"
 "http://www.w3.org/TR/2001/REC-SVG-20010904/DTD/svg10.dtd">
<svg version="1.0" xmlns="http://www.w3.org/2000/svg"
 width="1280.000000pt" height="1176.000000pt" viewBox="0 0 1280.000000 1176.000000"
 preserveAspectRatio="xMidYMid meet">
<metadata>
Created by potrace 1.15, written by Peter Selinger 2001-2017
</metadata>
<g transform="translate(0.000000,1176.000000) scale(0.100000,-0.100000)"
fill="#c7c7c7" stroke="none">
<path d="M4705 10169 c-506 -876 -931 -1611 -944 -1634 l-23 -43 363 -628
c199 -346 371 -641 381 -657 l19 -27 746 2 745 3 195 323 c108 178 196 322
198 320 1 -2 169 -292 374 -646 l371 -642 -191 -331 c-105 -181 -189 -332
-187 -335 3 -2 180 -83 394 -180 214 -97 524 -237 689 -311 165 -75 363 -164
440 -198 77 -35 226 -102 330 -150 105 -47 193 -87 196 -88 6 -2 635 594 895
848 l93 90 370 643 c204 354 371 647 371 652 0 6 -153 11 -376 12 l-376 3
-1318 2280 -1317 2280 -759 3 -759 2 -920 -1591z"/>
<path d="M2270 7205 c0 -3 84 -151 186 -328 180 -310 186 -323 172 -347 -8
-14 -603 -1043 -1322 -2288 l-1307 -2263 378 -654 378 -655 1890 0 1890 1 377
654 377 654 -375 649 -375 649 -372 7 c-204 4 -373 9 -375 11 -3 2 162 291
364 642 l369 638 387 3 387 2 -5 33 c-2 17 -27 262 -54 542 -47 480 -57 577
-80 800 -5 50 -25 259 -45 465 -20 206 -40 384 -45 396 -6 17 -52 33 -256 92
-263 76 -574 166 -863 251 l-174 51 -754 0 c-414 0 -753 -2 -753 -5z"/>
<path d="M9367 5173 c-117 -196 -710 -1230 -710 -1239 0 -6 77 -150 171 -321
94 -170 174 -317 178 -326 6 -16 -44 -17 -739 -17 l-744 0 -189 330 c-104 181
-192 329 -196 330 -4 0 -135 -92 -290 -203 -156 -112 -564 -405 -908 -652
-344 -246 -628 -450 -632 -454 -4 -3 17 -103 46 -221 62 -248 179 -728 231
-942 l36 -147 378 -656 379 -656 49 83 c27 46 112 192 189 325 l139 243 2642
0 2643 0 23 38 c13 20 184 315 381 655 l357 618 -943 1634 -943 1634 -757 1
-757 0 -34 -57z"/>
</g>
</svg>
