<?xml version="1.0" encoding="UTF-8"?>
<svg width="752pt" height="752pt" version="1.1" viewBox="0 0 752 752" xmlns="http://www.w3.org/2000/svg">
 <g>
  <path d="m555.96 537.63h-348.08v-335.06c0-6.5352-5.3008-11.836-11.84-11.836-6.5391 0-11.84 5.3008-11.84 11.836v346.9c0 3.1406 1.25 6.1523 3.4688 8.375 2.2227 2.2188 5.2344 3.4648 8.3711 3.4648h359.92c6.5391 0 11.84-5.3008 11.84-11.84 0-6.5391-5.3008-11.84-11.84-11.84z"/>
  <path d="m258.18 403.8v33.766c0 2.6172 2.1172 4.7383 4.7344 4.7383 2.6172 0 4.7344-2.1211 4.7344-4.7383v-33.766c4.5703-0.96875 8.6719-3.4766 11.609-7.1055 2.9414-3.6289 4.543-8.1602 4.543-12.832v-36.277c0-4.6719-1.6016-9.2031-4.543-12.832-2.9375-3.6289-7.0391-6.1367-11.609-7.1055v-33.387c0-2.6172-2.1172-4.7344-4.7344-4.7344-2.6172 0-4.7344 2.1172-4.7344 4.7344v33.578c-4.5391 0.95703-8.6133 3.4375-11.551 7.0312-2.9375 3.5898-4.5586 8.0781-4.6016 12.715v36.137c-0.035157 4.6953 1.5547 9.2578 4.4961 12.918 2.9453 3.6602 7.0625 6.1875 11.656 7.1602z"/>
  <path d="m337.21 448.6v35.094c0 2.6133 2.1211 4.7344 4.7344 4.7344 2.6172 0 4.7383-2.1211 4.7383-4.7344v-34.195c4.9766-0.53516 9.582-2.8906 12.93-6.6133 3.3477-3.7266 5.2031-8.5547 5.207-13.559v-126.97c-0.003907-5.0078-1.8594-9.8359-5.207-13.559-3.3477-3.7227-7.9531-6.0781-12.93-6.6172v-34.051c0-2.6133-2.1211-4.7344-4.7383-4.7344-2.6133 0-4.7344 2.1211-4.7344 4.7344v35.094c-4.1055 1.293-7.6914 3.8594-10.246 7.3203-2.5508 3.4648-3.9414 7.6523-3.9609 11.953v126.83c0.019532 4.3008 1.4102 8.4883 3.9609 11.953 2.5547 3.4609 6.1406 6.0273 10.246 7.3203z"/>
  <path d="m420.28 400.34v13.543c0 2.6172 2.1211 4.7383 4.7344 4.7383 2.6172 0 4.7383-2.1211 4.7383-4.7383v-13.543c4.5703-0.96875 8.668-3.4766 11.609-7.1055 2.9375-3.6289 4.543-8.1602 4.5391-12.832v-29.125c0.003906-4.6719-1.6016-9.2031-4.5391-12.832-2.9414-3.6289-7.0391-6.1406-11.609-7.1055v-13.5c0-2.6133-2.1211-4.7344-4.7383-4.7344-2.6133 0-4.7344 2.1211-4.7344 4.7344v13.5c-4.5547 0.97266-8.6367 3.4805-11.566 7.0977-2.9297 3.6211-4.5312 8.1367-4.5352 12.793v29.125c-0.015626 4.6719 1.5742 9.207 4.5078 12.848 2.9297 3.6367 7.0234 6.1602 11.594 7.1367z"/>
  <path d="m501.36 435.29v35.426c0 2.6133 2.1211 4.7344 4.7344 4.7344 2.6172 0 4.7344-2.1211 4.7344-4.7344v-35.426c4.5703-0.96484 8.6719-3.4766 11.609-7.1055 2.9414-3.6289 4.543-8.1602 4.543-12.832v-99.023c0-4.6719-1.6016-9.2031-4.543-12.832-2.9375-3.6328-7.0391-6.1406-11.609-7.1094v-35.562c0-2.6172-2.1172-4.7383-4.7344-4.7383-2.6133 0-4.7344 2.1211-4.7344 4.7383v35.613c-4.5703 0.96484-8.6719 3.4727-11.609 7.1055-2.9414 3.6289-4.543 8.1602-4.5391 12.832v98.977c-0.003907 4.6719 1.5977 9.2031 4.5391 12.832 2.9375 3.6289 7.0391 6.1406 11.609 7.1055z"/>
 </g>
</svg>
