<svg width="86" height="101" xmlns="http://www.w3.org/2000/svg" xmlns:xlink="http://www.w3.org/1999/xlink" overflow="hidden"><defs><clipPath id="clip0"><rect x="215" y="363" width="86" height="101"/></clipPath></defs><g clip-path="url(#clip0)" transform="translate(-215 -363)"><path d="M240.947 456.919C231.236 447.94 230.947 432.459 240.301 422.342 251.592 410.129 257.023 392.497 256.592 369.445 257.023 392.497 263.099 409.441 274.822 420.279 284.533 429.258 284.823 444.738 275.468 454.856 266.114 464.974 250.658 465.897 240.947 456.919Z" fill="#C7C7C7" fill-rule="evenodd"/><path d="M219.427 413.122C214.062 408.162 213.734 399.793 218.694 394.429 224.681 387.953 227.43 378.485 226.941 366.022 227.43 378.485 230.912 387.709 237.387 393.696 242.752 398.656 243.08 407.025 238.12 412.389 233.16 417.754 224.791 418.082 219.427 413.122Z" fill="#C7C7C7" fill-rule="evenodd"/><path d="M278.07 410.898C272.705 405.938 272.377 397.569 277.337 392.205 283.324 385.729 286.073 376.26 285.584 363.798 286.073 376.26 289.555 385.485 296.03 391.472 301.395 396.431 301.723 404.801 296.763 410.165 291.803 415.529 283.434 415.858 278.07 410.898Z" fill="#C7C7C7" fill-rule="evenodd"/></g></svg>