<svg id="svg" version="1.1"
    xmlns="http://www.w3.org/2000/svg"
    xmlns:xlink="http://www.w3.org/1999/xlink" width="400" height="400" viewBox="0, 0, 400,400">
    <g id="svgg">
        <path id="path0" d="M184.384 29.187 C 107.618 99.886,91.907 200.764,151.648 239.377 C 161.286 245.606,167.596 247.822,187.081 251.821 C 190.861 252.597,191.388 253.885,191.388 262.363 C 191.388 273.032,193.898 279.426,198.086 279.426 C 202.257 279.426,204.785 273.045,204.785 262.519 L 204.785 253.016 218.994 249.854 C 297.208 232.454,302.705 136.352,230.452 49.581 C 204.644 18.587,198.734 15.971,184.384 29.187 M213.078 75.214 C 265.866 143.229,265.177 212.710,211.628 221.400 L 204.785 222.510 204.785 214.501 C 204.785 206.893,205.795 205.472,224.963 186.117 C 239.340 171.600,244.981 164.619,244.581 161.838 C 243.426 153.812,237.473 156.478,221.519 172.163 L 205.742 187.674 205.195 167.167 L 204.648 146.661 215.428 135.767 C 230.573 120.462,226.578 107.858,211.281 122.684 L 204.785 128.981 204.785 107.709 C 204.785 83.246,204.083 80.383,198.086 80.383 C 192.090 80.383,191.388 83.246,191.388 107.709 L 191.388 128.981 184.891 122.684 C 177.824 115.835,171.637 115.339,170.744 121.551 C 170.383 124.064,173.800 128.916,180.792 135.820 L 191.388 146.281 191.388 167.260 L 191.388 188.239 175.195 172.433 C 158.849 156.479,152.756 153.717,151.608 161.742 C 151.229 164.393,157.190 171.780,171.225 186.049 C 198.801 214.086,200.662 230.050,174.994 218.392 C 128.768 197.396,133.661 137.084,187.009 70.294 C 198.993 55.291,197.379 54.986,213.078 75.214 M30.395 115.795 C 6.518 128.771,16.325 258.690,44.507 302.745 C 63.913 333.082,81.238 347.328,88.699 339.084 C 94.056 333.164,92.356 328.799,78.511 312.919 C 49.965 280.177,41.637 251.990,38.874 178.770 C 37.128 132.500,41.756 122.421,46.131 162.965 C 48.674 186.534,49.928 189.474,57.439 189.474 C 67.114 189.474,69.078 183.900,66.896 162.644 C 62.620 120.980,50.196 105.035,30.395 115.795 M347.142 114.799 C 328.153 122.469,320.835 189.474,338.985 189.474 C 346.212 189.474,347.519 186.341,350.041 162.965 C 354.416 122.421,359.045 132.500,357.298 178.770 C 354.535 251.990,346.207 280.177,317.661 312.919 C 303.535 329.121,302.541 331.556,307.286 338.330 C 312.750 346.132,318.282 343.812,332.161 327.898 C 362.883 292.673,370.715 270.848,377.147 202.548 C 383.622 133.786,373.490 104.156,347.142 114.799 M58.234 201.548 C 43.141 214.530,52.481 246.036,81.805 281.057 C 88.546 289.107,95.731 298.910,97.772 302.840 C 104.078 314.986,117.081 314.940,118.296 302.766 C 119.067 295.053,117.877 293.020,98.248 268.502 C 80.532 246.374,72.098 230.984,73.076 222.566 C 73.657 217.568,74.198 217.932,85.143 230.676 C 104.930 253.718,117.406 265.129,132.142 273.667 C 162.434 291.216,165.803 298.882,163.823 345.765 C 162.347 380.714,163.686 386.603,173.113 386.603 C 182.246 386.603,183.217 383.346,184.701 347.730 C 186.996 292.637,180.299 277.399,144.793 256.918 C 128.625 247.593,123.320 242.874,102.540 219.335 C 82.381 196.499,69.920 191.496,58.234 201.548 M312.771 200.735 C 309.531 202.710,300.919 211.080,293.632 219.335 C 272.877 242.846,267.672 247.477,251.035 257.230 C 213.956 278.968,207.920 295.428,212.165 363.230 C 213.463 383.973,214.686 386.514,223.401 386.574 C 232.496 386.636,233.896 380.271,232.402 345.661 C 230.358 298.308,233.442 291.564,265.822 272.576 C 277.413 265.779,285.403 259.202,294.530 248.944 C 301.486 241.127,310.817 230.792,315.267 225.978 L 323.356 217.225 323.401 223.251 C 323.461 231.434,313.963 248.892,300.647 265.072 C 281.961 287.777,277.512 294.813,277.512 301.655 C 277.512 313.745,291.911 315.322,297.828 303.880 C 299.566 300.519,306.319 291.219,312.835 283.215 C 337.077 253.431,344.498 238.116,344.498 217.864 C 344.498 200.152,328.177 191.340,312.771 200.735 M91.046 347.505 C 86.904 351.647,87.280 358.273,91.941 363.275 C 99.047 370.903,109.091 367.325,109.091 357.167 C 109.091 346.433,98.037 340.514,91.046 347.505 M290.249 347.998 C 283.364 355.605,287.725 367.464,297.407 367.464 C 301.641 367.464,308.134 359.798,308.134 354.800 C 308.134 345.516,296.499 341.091,290.249 347.998 M105.263 370.773 C 101.050 372.377,99.584 375.323,99.551 382.253 C 99.512 390.502,106.927 395.859,113.954 392.657 C 120.746 389.562,121.057 378.319,114.505 372.727 C 110.343 369.175,109.776 369.055,105.263 370.773 M281.667 372.727 C 275.115 378.319,275.426 389.562,282.218 392.657 C 289.850 396.134,296.651 390.533,296.651 380.770 C 296.651 374.310,295.882 372.819,291.741 371.244 C 285.562 368.895,286.281 368.789,281.667 372.727 " stroke="none" fill="#8F929A" fill-rule="evenodd"></path>
    </g>
</svg>